<svg xmlns="http://www.w3.org/2000/svg" version="1.1" xmlns:xlink="http://www.w3.org/1999/xlink" viewBox="0 0 13.061032276077084 4.105878366593674"><g transform="matrix(0.7416079278557617,0,0,0.7416079278557617,2.217896806637338,1.4929335807777318)"><g transform="matrix(1,0,0,1,0,0)" clip-path="url(#SvgjsClipPath126520)"><g clip-path="url(#SvgjsClipPath12651856538dd9-de10-498d-9c15-6a18e89225b7)"><path d=" M 9.703828683012105 -0.22612434927966135 C 10.031195979421993 -0.22612434927966135 10.324403210119542 -0.05760135843213732 10.497480876395379 0.1923364556964543 L 10.09154542884712 0.598271903244713 L 10.59199039153284 0.598271903244713 L 10.930175042084967 0.26008725269258703 C 10.792396110378544 -0.10314811271525182 10.497480876395379 -0.38610732369910133 10.129690835559227 -0.5113608979776665 C 9.870074336145473 -0.46296747155185725 9.595655141589708 -0.36219527770046617 9.37019870788829 -0.1663442342830735 C 9.474956242739456 -0.20505897542372087 9.587115125161624 -0.22612434927966135 9.703828683012105 -0.22612434927966135 Z" fill="#3f170e" transform="matrix(1,0,0,1,0,0)" fill-rule="nonzero"></path></g><g clip-path="url(#SvgjsClipPath12651856538dd9-de10-498d-9c15-6a18e89225b7)"><path d=" M 10.636967811387416 0.9979446720790437 C 10.533348945393332 1.422668155769087 10.15474155041494 1.7363714258940395 9.703828683012105 1.7363714258940395 C 9.69585800101256 1.7363714258940395 9.687887319013015 1.7363714258940395 9.67991663701347 1.7358020914655 C 9.28593721246453 1.7261234061803383 9.042831411478405 1.4699229133378184 9.042831411478405 1.4699229133378184 C 9.004686004766297 1.434054844339866 8.969387270196883 1.3947707687706796 8.937504542198702 1.3532093554873377 C 9.138479595472946 1.8268956000317293 9.644617902444057 1.9874479088797086 10.115457474845755 2.026162650020356 C 10.5709250176769 1.8752890264575386 10.91764968465711 1.481878936337136 11.000203176795255 0.9973753376505048 L 10.638106480244495 0.9973753376505048 L 10.636967811387416 0.9973753376505048 Z" fill="#3f170e" transform="matrix(1,0,0,1,0,0)" fill-rule="nonzero"></path></g><g clip-path="url(#SvgjsClipPath12651856538dd9-de10-498d-9c15-6a18e89225b7)"><path d=" M 11.218258262925666 0.4092528729697874 L 11.218258262925666 0.6478039985276003 L 10.59255972596138 0.6478039985276003 L 10.092114763275658 0.6478039985276003 L 8.750762849637933 0.6478039985276003 L 8.392082159658406 0.6478039985276003 C 8.387527484230093 0.6916427495250981 8.385250146515938 0.7360508349511348 8.385250146515938 0.7810282548057101 C 8.385250146515938 0.7884296023767166 8.385250146515938 0.7958309499477227 8.385250146515938 0.8026629630901898 L 11.625332379331002 0.827144343517364 L 11.630456389187854 0.8225896680890525 L 11.218258262925666 0.4092528729697874 Z" fill="#3f170e" transform="matrix(1,0,0,1,0,0)" fill-rule="nonzero"></path></g><g clip-path="url(#SvgjsClipPath12651856538dd9-de10-498d-9c15-6a18e89225b7)"><path d=" M 9.37133737674537 -0.16691356871161245 C 9.596793810446787 -0.36219527770046633 9.871213005002552 -0.4629674715518574 10.130829504416305 -0.5119302324062056 C 9.997035913709656 -0.5574769866893201 9.853563637717846 -0.5825277015450332 9.704398017440646 -0.5825277015450332 C 9.022904706479542 -0.5825277015450332 8.45983295665454 -0.06614137486022131 8.392651494086945 0.5977025688161741 L 8.751332184066472 0.5977025688161741 C 8.80029494492082 0.24471522312203597 9.044539414764023 -0.046784004289897485 9.37133737674537 -0.16691356871161245 Z" fill="#d56a34" transform="matrix(1,0,0,1,0,0)" fill-rule="nonzero"></path></g><g clip-path="url(#SvgjsClipPath12651856538dd9-de10-498d-9c15-6a18e89225b7)"><path d=" M 8.403468848229183 0.9979446720790437 L 8.404607517086262 0.9979446720790437 C 8.511073055223042 1.6185191991864805 9.053648765620645 2.092774778159411 9.703828683012105 2.092774778159411 C 9.847300959003917 2.092774778159411 9.986218559567417 2.0694320665893144 10.115457474845755 2.0267319844488947 C 9.644617902444057 1.9880172433082481 9.138479595472946 1.8274649344602685 8.937504542198702 1.3537786899158766 C 8.857797722203252 1.250159823921791 8.799156276063743 1.1294609250715373 8.7678428824941 0.9979446720790437 L 9.741974089724215 0.9979446720790437 L 10.242419052409936 0.9979446720790437 L 10.636398476958878 0.9979446720790437 L 10.638106480244495 0.9979446720790437 L 11.000203176795255 0.9979446720790437 L 11.001341845652334 0.9979446720790437 L 11.217688928497127 0.9979446720790437 L 11.217688928497127 1.1920877122108198 L 11.43460534577046 0.9979446720790437 L 11.439160021198774 0.9979446720790437 L 11.439160021198774 0.9939593310792711 L 11.624763044902465 0.8277136779459029 L 8.385819480944477 0.8032322975187289 C 8.386958149801554 0.8692750912292451 8.393220828515483 0.9341792160826834 8.403468848229183 0.9979446720790437 Z" fill="#d56a34" transform="matrix(1,0,0,1,0,0)" fill-rule="nonzero"></path></g></g><g><path d=" M 0.36668550419855267 1.1052356863837733 Q 0.36668550419855267 1.1932816407817308 0.36927509109261025 1.2590571478907933 Q 0.3718646779866678 1.3248326549998557 0.3754900996383484 1.372481053850515 Q 0.379115521290029 1.4201294527011745 0.3848126124569557 1.4522403301874884 Q 0.3905097036238823 1.4843512076738024 0.3967247121696205 1.506103737583886 L 0.3967247121696205 1.510247076614378 L 0.1481243703400933 1.510247076614378 L 0.1481243703400933 1.506103737583886 Q 0.1543393788858315 1.4843512076738024 0.16003647005275815 1.4522403301874884 Q 0.1657335612196848 1.4201294527011745 0.16935898287136542 1.372481053850515 Q 0.17298440452304603 1.3248326549998557 0.1755739914171036 1.2595750652696047 Q 0.17816357831116117 1.194317475539354 0.17816357831116117 1.1052356863837733 L 0.17816357831116117 0.43090725917118067 Q 0.17816357831116117 0.3428613047732232 0.1755739914171036 0.27708579766416075 Q 0.17298440452304603 0.2113102905550983 0.16935898287136542 0.163661891704439 Q 0.1657335612196848 0.11601349285377949 0.16003647005275815 0.08338469798865411 Q 0.1543393788858315 0.050755903123528734 0.1481243703400933 0.02900337321344515 L 0.1481243703400933 0.024860034182953017 L 0.19162943016026057 0.02900337321344515 Q 0.21131029055509815 0.031075042728691216 0.23565240735923934 0.03159296010750268 Q 0.25999452416338054 0.03211087748631414 0.2858903931039563 0.03211087748631414 Q 0.3262879486512545 0.03211087748631414 0.39517096003318597 0.022270447288895268 Q 0.4640539714151175 0.01243001709147662 0.5707449514502896 0.01243001709147662 Q 0.6701850881821004 0.01243001709147662 0.7546056209283775 0.03936172078967526 Q 0.8390261536746544 0.06629342448787412 0.9011762391320361 0.11808516236902555 Q 0.963326324589418 0.1698769002501772 0.9980267889697895 0.24497492017784683 Q 1.032727253350161 0.32007294010551646 1.032727253350161 0.4153697378068353 Q 1.032727253350161 0.48994984035569344 1.013564310334135 0.5536536779495098 Q 0.9944013673181089 0.6173575155433262 0.9597009029377374 0.6691492534244776 Q 0.9250004385573659 0.7209409913056292 0.8763162049490835 0.7608206294741158 Q 0.827631971340801 0.8007002676426025 0.7675535553986653 0.8276319713408012 L 1.1311315553243488 1.338298506848955 Q 1.1580632590225477 1.3766243928810071 1.1813695410690659 1.404591931336829 Q 1.204675823115584 1.432559469792651 1.2259104356468562 1.4527582475663 Q 1.2471450481781283 1.4729570253399489 1.2668259085729658 1.485904959810237 Q 1.2865067689678034 1.4988528942805248 1.307223464120264 1.506103737583886 L 1.307223464120264 1.510247076614378 L 1.0078672191672082 1.510247076614378 Q 1.0047597148943392 1.4905662162195406 0.9876684413935591 1.457937421354415 Q 0.9705771678927791 1.4253086264892896 0.9477888032250725 1.3931977490029757 L 0.5811032990265199 0.8763162049490837 Q 0.5572790996011902 0.8783878744643298 0.5334549001758605 0.8799416266007642 Q 0.5096307007505309 0.8814953787371989 0.48477066656757806 0.8814953787371989 Q 0.45576729335413324 0.8814953787371989 0.42624600276187685 0.8794237092219528 Q 0.3967247121696205 0.8773520397067067 0.36668550419855267 0.8721728659185916 L 0.36668550419855267 1.1052356863837733 M 0.36668550419855267 0.7913777548239952 Q 0.39465304265437445 0.7975927633697334 0.4236564158678193 0.8001823502637909 Q 0.45265978908126414 0.8027719371578486 0.47959149277946295 0.8027719371578486 Q 0.5572790996011902 0.8027719371578486 0.6215008545738181 0.7794656551113304 Q 0.6857226095464459 0.7561593730648122 0.7307814215030477 0.7085109742141528 Q 0.7758402334596496 0.6608625753634934 0.8007002676426023 0.5899078944663159 Q 0.825560301825555 0.5189532135691383 0.825560301825555 0.42365641586781955 Q 0.825560301825555 0.3459688090460922 0.8079511109459635 0.2827828888310875 Q 0.7903419200663719 0.21959696861608258 0.7556414556860005 0.17557399141710373 Q 0.7209409913056289 0.1315510142181251 0.6681134186668544 0.10720889741398376 Q 0.6152858460280799 0.08286678060984265 0.5448490825097139 0.08286678060984265 Q 0.47337648423372475 0.08286678060984265 0.4309072591711805 0.09011762391320377 Q 0.38843803410863625 0.09736846721656511 0.36668550419855267 0.10565514527754938 L 0.36668550419855267 0.7913777548239952 M 1.8769325808129305 1.5288921022515927 Q 1.7619549227167741 1.5288921022515927 1.6614789512273402 1.4926378857347866 Q 1.5610029797379061 1.4563836692179806 1.486422877189048 1.386464823078426 Q 1.4118427746401898 1.3165459769388714 1.368855632198834 1.21348041855538 Q 1.3258684897574784 1.1104148601718884 1.3258684897574784 0.9778280111961406 Q 1.3258684897574784 0.8607786835847382 1.3652302105471534 0.7608206294741158 Q 1.4045919313368287 0.6608625753634934 1.4739928600975718 0.5873183075722582 Q 1.5433937888583147 0.5137740397810231 1.636100999665576 0.472340649476102 Q 1.728808210472837 0.43090725917118067 1.8365350252656323 0.43090725917118067 Q 1.9432260053008044 0.43090725917118067 2.034379463971631 0.4676793930667984 Q 2.1255329226424577 0.5044515269624159 2.192344264509143 0.5743703731019704 Q 2.2591556063758285 0.6442892192415249 2.297999409786692 0.7473547776250165 Q 2.3368432131975556 0.8504203360085079 2.339950717470425 0.9819713502266327 Q 2.2229013898590226 0.9798996807113867 2.10585206224762 0.9788638459537636 Q 1.9888027346362178 0.9778280111961406 1.862430894206208 0.9778280111961406 Q 1.7723132702930045 0.9778280111961406 1.6868569027891045 0.9788638459537636 Q 1.6014005352852045 0.9798996807113867 1.5330354412820844 0.9819713502266327 Q 1.5392504498278226 1.0896981650194277 1.5667000709048329 1.1767082846597625 Q 1.5941496919818432 1.2637184043000969 1.642316008211314 1.3253505723786672 Q 1.690482324440785 1.3869827404572375 1.7593653358227166 1.4201294527011745 Q 1.828248347204648 1.4532761649451114 1.9152584668449826 1.4532761649451114 Q 1.9753368827871183 1.4532761649451114 2.0286823728047043 1.4392923957172006 Q 2.08202786282229 1.4253086264892896 2.1255329226424577 1.4004485923063368 Q 2.169037982462625 1.3755885581233842 2.203220529464185 1.3419239285006357 Q 2.237403076465745 1.3082592988778872 2.2612272758910743 1.2688975780882121 L 2.273657292982551 1.2751125866339503 L 2.197005520918447 1.4594911734908496 Q 2.141070444006803 1.4884945467042945 2.0633828371850758 1.5086933244779435 Q 1.9856952303633486 1.5288921022515927 1.8769325808129305 1.5288921022515927 M 1.7391665580490674 0.8970329001015442 Q 1.8427500338113703 0.8970329001015442 1.946851426952485 0.8965149827227328 Q 2.0509528200935994 0.8959970653439212 2.135891270218688 0.8928895610710521 Q 2.1265687574000807 0.8027719371578486 2.100672888459505 0.7312993388818595 Q 2.0747770195189292 0.6598267406058703 2.034379463971631 0.610106672239965 Q 1.9939819084243329 0.5603866038740595 1.9390826662703122 0.5334549001758607 Q 1.8841834241162916 0.506523196477662 1.8178899996284177 0.506523196477662 Q 1.757811583686282 0.506523196477662 1.707573597941565 0.5329369827970492 Q 1.657335612196848 0.5593507691164364 1.620045560922419 0.6090708374823419 Q 1.58275550964799 0.6587909058482473 1.5599671449802832 0.7307814215030479 Q 1.5371787803125765 0.8027719371578486 1.5330354412820844 0.8949612305862982 Q 1.5796480053751207 0.8970329001015442 1.6314397432562724 0.8970329001015442 Q 1.6832314811374238 0.8970329001015442 1.7391665580490674 0.8970329001015442 M 3.030852500804986 0.6577550710906244 L 3.0163508141982636 0.6598267406058703 Q 3.009099970894902 0.6360025411805407 2.993044532151745 0.6090708374823419 Q 2.9769890934085885 0.5821391337841431 2.9516111418468243 0.5593507691164364 Q 2.92623319028506 0.5365624044487298 2.890496891147065 0.5215428004631959 Q 2.854760592009071 0.506523196477662 2.8081480279160345 0.506523196477662 Q 2.7760371504297208 0.506523196477662 2.7475516945950873 0.5158457092962692 Q 2.719066238760454 0.5251682221148765 2.6978316262291817 0.5432953303732795 Q 2.6765970136979096 0.5614224386316825 2.664166996606433 0.5883541423298813 Q 2.651736979514957 0.6152858460280801 2.651736979514957 0.6515400625448862 Q 2.651736979514957 0.7022959656684146 2.6833299396224595 0.7483906123826395 Q 2.7149228997299617 0.7944852590968643 2.762571298580621 0.8395440710534661 Q 2.8102196974312807 0.884602883010068 2.865636856964113 0.9301796123454812 Q 2.921054016496945 0.9757563416808945 2.9687024153476043 1.0254764100468 Q 3.0163508141982636 1.0751964784127055 3.047943774305766 1.1316494727031605 Q 3.0795367344132685 1.1881024669936158 3.0795367344132685 1.2533600567238667 Q 3.0795367344132685 1.306187629362641 3.0608917087760537 1.3564256151073582 Q 3.0422466831388393 1.406663600852075 3.0034028797279757 1.4460253216417502 Q 2.964559076317112 1.4853870424314253 2.903962742996165 1.5097291592355666 Q 2.8433664096752174 1.5340712760397077 2.7594637943077522 1.5340712760397077 Q 2.7097437259418466 1.5340712760397077 2.666756583500491 1.5247487632211005 Q 2.6237694410591352 1.5154262504024931 2.5880331419211404 1.5014424811745823 Q 2.552296842783146 1.4874587119466713 2.5238113869485126 1.4703674384458914 Q 2.4953259311138796 1.4532761649451114 2.473573401203796 1.437738643580766 L 2.483931748780026 1.2409300396323903 L 2.5005051049019946 1.2409300396323903 Q 2.5108634524782247 1.2896142732406726 2.5315801476306854 1.3300118287879708 Q 2.552296842783146 1.370409384335269 2.5828539681330254 1.3988948401699024 Q 2.6134110934829047 1.4273802960045356 2.65277281427258 1.4434357347476927 Q 2.692134535062255 1.4594911734908496 2.7387470991552916 1.4594911734908496 Q 2.815398871219396 1.4594911734908496 2.8604576831759974 1.4170219484283053 Q 2.9055164951325994 1.374552723365761 2.9055164951325994 1.306187629362641 Q 2.9055164951325994 1.2512883872086205 2.87495936978272 1.2051937404943958 Q 2.8444022444328407 1.1590990937801708 2.7977896803398044 1.1166298687176266 Q 2.751177116246768 1.0741606436550823 2.6978316262291817 1.031691418592538 Q 2.644486136211596 0.989222193529994 2.5978735721185595 0.9410558773005231 Q 2.551261008025523 0.8928895610710521 2.520703882675644 0.8354007320229739 Q 2.490146757325764 0.7779119029748958 2.490146757325764 0.7043676351836606 Q 2.490146757325764 0.6442892192415249 2.5124172046146596 0.594051233496808 Q 2.5346876519035546 0.5438132477520911 2.574567290072041 0.5080769486140964 Q 2.614446928240528 0.472340649476102 2.6693461703945482 0.45265978908126425 Q 2.724245412548569 0.43297892868642673 2.78950300227882 0.43297892868642673 Q 2.8754772871615315 0.43297892868642673 2.9329661162096095 0.45110603694482987 Q 2.990454945257688 0.4692331452032328 3.0204941532287557 0.4858065013252013 L 3.030852500804986 0.6577550710906244 M 3.7776893610511904 1.5288921022515927 Q 3.6627117029550345 1.5288921022515927 3.5622357314656004 1.4926378857347866 Q 3.4617597599761663 1.4563836692179806 3.3871796574273083 1.386464823078426 Q 3.31259955487845 1.3165459769388714 3.269612412437094 1.21348041855538 Q 3.2266252699957385 1.1104148601718884 3.2266252699957385 0.9778280111961406 Q 3.2266252699957385 0.8607786835847382 3.2659869907854135 0.7608206294741158 Q 3.305348711575089 0.6608625753634934 3.374749640335832 0.5873183075722582 Q 3.444150569096575 0.5137740397810231 3.536857779903836 0.472340649476102 Q 3.6295649907110974 0.43090725917118067 3.7372918055038924 0.43090725917118067 Q 3.8439827855390645 0.43090725917118067 3.935136244209891 0.4676793930667984 Q 4.026289702880717 0.5044515269624159 4.093101044747403 0.5743703731019704 Q 4.159912386614089 0.6442892192415249 4.198756190024952 0.7473547776250165 Q 4.237599993435816 0.8504203360085079 4.240707497708685 0.9819713502266327 Q 4.123658170097283 0.9798996807113867 4.00660884248588 0.9788638459537636 Q 3.889559514874478 0.9778280111961406 3.763187674444468 0.9778280111961406 Q 3.6730700505312646 0.9778280111961406 3.5876136830273646 0.9788638459537636 Q 3.5021573155234647 0.9798996807113867 3.4337922215203447 0.9819713502266327 Q 3.4400072300660827 1.0896981650194277 3.467456851143093 1.1767082846597625 Q 3.4949064722201033 1.2637184043000969 3.543072788449574 1.3253505723786672 Q 3.5912391046790453 1.3869827404572375 3.6601221160609767 1.4201294527011745 Q 3.729005127442908 1.4532761649451114 3.816015247083243 1.4532761649451114 Q 3.8760936630253786 1.4532761649451114 3.9294391530429644 1.4392923957172006 Q 3.9827846430605502 1.4253086264892896 4.026289702880717 1.4004485923063368 Q 4.0697947627008855 1.3755885581233842 4.1039773097024455 1.3419239285006357 Q 4.138159856704005 1.3082592988778872 4.161984056129334 1.2688975780882121 L 4.174414073220811 1.2751125866339503 L 4.097762301156707 1.4594911734908496 Q 4.041827224245063 1.4884945467042945 3.964139617423336 1.5086933244779435 Q 3.8864520106016087 1.5288921022515927 3.7776893610511904 1.5288921022515927 M 3.6399233382873275 0.8970329001015442 Q 3.7435068140496304 0.8970329001015442 3.847608207190745 0.8965149827227328 Q 3.9517096003318595 0.8959970653439212 4.036648050456948 0.8928895610710521 Q 4.02732553763834 0.8027719371578486 4.0014296686977655 0.7312993388818595 Q 3.9755337997571893 0.6598267406058703 3.935136244209891 0.610106672239965 Q 3.894738688662593 0.5603866038740595 3.8398394465085723 0.5334549001758607 Q 3.7849402043545517 0.506523196477662 3.7186467798666776 0.506523196477662 Q 3.658568363924542 0.506523196477662 3.6083303781798253 0.5329369827970492 Q 3.558092392435108 0.5593507691164364 3.520802341160679 0.6090708374823419 Q 3.48351228988625 0.6587909058482473 3.4607239252185433 0.7307814215030479 Q 3.437935560550837 0.8027719371578486 3.4337922215203447 0.8949612305862982 Q 3.480404785613381 0.8970329001015442 3.5321965234945325 0.8970329001015442 Q 3.583988261375684 0.8970329001015442 3.6399233382873275 0.8970329001015442 M 4.463411970597637 0.854563675039 Q 4.463411970597637 0.7665177206410425 4.4608223837035785 0.7007422135319801 Q 4.458232796809521 0.6349667064229176 4.454607375157841 0.5873183075722582 Q 4.45098195350616 0.5396699087215989 4.445284862339234 0.5075590312352849 Q 4.439587771172307 0.475448153748971 4.433372762626568 0.4536956238388874 L 4.433372762626568 0.44955228480839526 L 4.672650591637488 0.44955228480839526 L 4.672650591637488 0.4536956238388874 Q 4.664363913576504 0.47751982326421705 4.658666822409578 0.511702370265777 Q 4.652969731242651 0.545884917267337 4.649862226969782 0.5997483246637346 Q 4.688188113001834 0.5676374471774207 4.729621503306755 0.5365624044487298 Q 4.771054893611677 0.5054873617200388 4.814559953431844 0.4816631622947092 Q 4.858065013252011 0.45783896286937953 4.9031238252086125 0.44333727626265707 Q 4.948182637165215 0.4288355896559346 4.993759366500628 0.4288355896559346 Q 5.0217269049564495 0.4288355896559346 5.042443600108911 0.43142517654999213 Q 5.063160295261371 0.4340147634440499 5.079733651383339 0.43867601985335347 Q 5.096307007505308 0.44333727626265707 5.109772859354408 0.4490343674295838 Q 5.1232387112035065 0.4547314585965103 5.135668728294983 0.4599106323846256 L 5.084912825171455 0.6577550710906244 L 5.067303634291863 0.6536117320601322 Q 5.0548736172003865 0.6080350027247189 5.0206910701988265 0.5805853816477086 Q 4.986508523197267 0.5531357605706982 4.927465942012754 0.5531357605706982 Q 4.89535506452644 0.5531357605706982 4.860136682767257 0.5645299429045516 Q 4.824918301008074 0.575924125238405 4.788664084491268 0.5961229030120541 Q 4.752409867974462 0.6163216807857032 4.7161556514576555 0.6427354671050903 Q 4.67990143494085 0.6691492534244776 4.64571888793929 0.6981526266379224 Q 4.643647218424044 0.7281918346089904 4.643647218424044 0.7634102163681734 Q 4.643647218424044 0.7986285981273564 4.643647218424044 0.8379903189170316 L 4.643647218424044 1.1052356863837733 Q 4.643647218424044 1.1932816407817308 4.64571888793929 1.2590571478907933 Q 4.6477905574545355 1.3248326549998557 4.651933896485028 1.372481053850515 Q 4.65607723551552 1.4201294527011745 4.661256409303635 1.4522403301874884 Q 4.666435583091751 1.4843512076738024 4.672650591637488 1.506103737583886 L 4.672650591637488 1.510247076614378 L 4.433372762626568 1.510247076614378 L 4.433372762626568 1.506103737583886 Q 4.439587771172307 1.4843512076738024 4.445284862339234 1.4522403301874884 Q 4.45098195350616 1.4201294527011745 4.454607375157841 1.372481053850515 Q 4.458232796809521 1.3248326549998557 4.4608223837035785 1.2590571478907933 Q 4.463411970597637 1.1932816407817308 4.463411970597637 1.1052356863837733 L 4.463411970597637 0.854563675039 M 6.591016562755341 1.336226837333709 Q 6.591016562755341 1.3476210196675624 6.5884269758612835 1.3600510367590388 Q 6.585837388967225 1.372481053850515 6.576514876148618 1.3807677319114993 Q 6.529902312055582 1.4159861136706824 6.4755209872803725 1.4455074042629388 Q 6.421139662505164 1.475028694855195 6.357953742290158 1.4967812247652788 Q 6.294767822075154 1.5185337546753623 6.22174147166273 1.530445854388027 Q 6.148715121250307 1.542357954100692 6.064812505882841 1.542357954100692 Q 5.87629057999545 1.542357954100692 5.720915366351996 1.4869407945678599 Q 5.56554015270854 1.4315236350350278 5.454187916264065 1.3300118287879708 Q 5.342835679819589 1.228500022540914 5.2817214291198304 1.0860727433677473 Q 5.220607178420072 0.9436454641945806 5.220607178420072 0.7696252249139116 Q 5.220607178420072 0.6712209229397237 5.245985129981836 0.575924125238405 Q 5.2713630815436 0.48062732753708626 5.320047315151883 0.3946530426543746 Q 5.368731548760165 0.3086787577716632 5.440204147036154 0.23668824211686257 Q 5.511676745312143 0.16469772646206193 5.6033481213617815 0.11187015382328735 Q 5.69501949741142 0.059042581184513 5.805335899098273 0.02952129059225661 Q 5.9156523007851245 2.220446049250313e-16 6.044095810730381 2.220446049250313e-16 Q 6.093815879096287 2.220446049250313e-16 6.145607616977438 0.004661256409303816 Q 6.1973993548585895 0.009322512818607409 6.248155257982118 0.018127108258403135 Q 6.2989111611056465 0.026931703698199083 6.346041642577494 0.03936172078967526 Q 6.393172124049341 0.051791737881151656 6.4356413491118865 0.06732925924549726 L 6.506078112630252 0.25895868940575784 L 6.497791434569268 0.26310202843624975 Q 6.45739387902197 0.2268478119194437 6.404566306383195 0.19577276919075293 Q 6.351738733744421 0.16469772646206193 6.291660317802285 0.14190936179435543 Q 6.2315819018601495 0.1191209971266487 6.165806394751087 0.10617306265636084 Q 6.100030887642024 0.09322512818607298 6.032701628396527 0.09322512818607298 Q 5.902186448936026 0.09322512818607298 5.793423799385607 0.13414060111218262 Q 5.68466114983519 0.17505607403829226 5.60645562563465 0.25274368086001964 Q 5.528250101434112 0.3304312876817468 5.4847450416139445 0.44333727626265707 Q 5.441239981793777 0.5562432648435673 5.441239981793777 0.7002242961531685 Q 5.441239981793777 0.8587070140694921 5.482673372098699 0.9944013673181091 Q 5.52410676240362 1.1300957205667261 5.605937708255839 1.2295358572985369 Q 5.6877686541080585 1.3289759940303478 5.810515072886387 1.3854289883208029 Q 5.933261491664717 1.441881982611258 6.096923383369155 1.441881982611258 Q 6.169431816402767 1.441881982611258 6.226402728072034 1.4304878002774049 Q 6.283373639741301 1.4190936179435514 6.3227353605309755 1.4020023444427714 Q 6.362097081320651 1.3849110709419914 6.3822958590943 1.3647122931683424 Q 6.402494636867949 1.3445135153946932 6.402494636867949 1.3279401592727247 L 6.402494636867949 1.2875426037254267 Q 6.402494636867949 1.2150341706918146 6.4004229673527036 1.1622065980530398 Q 6.398351297837457 1.1093790254142655 6.394207958806965 1.070535222003402 Q 6.3900646197764726 1.031691418592538 6.384885445988358 1.0037238801367163 Q 6.3797062722002424 0.9757563416808945 6.372455428896881 0.9519321422555649 L 6.372455428896881 0.9477888032250728 L 6.621055770726408 0.9477888032250728 L 6.621055770726408 0.9519321422555649 Q 6.61484076218067 0.9736846721656485 6.609143671013744 1.0032059627579049 Q 6.603446579846817 1.0327272533501612 6.599303240816325 1.0731248088974594 Q 6.5951599017858324 1.1135223644447576 6.593088232270587 1.1679036892199666 Q 6.591016562755341 1.2222850139951758 6.591016562755341 1.2937576122711647 L 6.591016562755341 1.336226837333709 M 6.782645992915602 0.9778280111961406 Q 6.782645992915602 0.8607786835847382 6.826151052735769 0.7608206294741158 Q 6.869656112555936 0.6608625753634934 6.945789967241229 0.5873183075722582 Q 7.021923821926522 0.5137740397810231 7.1255072976888245 0.472340649476102 Q 7.229090773451127 0.43090725917118067 7.348211770577776 0.43090725917118067 Q 7.4652610981891785 0.43090725917118067 7.56832665657267 0.46975106258204424 Q 7.671392214956161 0.508594865992908 7.7480439870202655 0.5800674642688971 Q 7.82469575908437 0.6515400625448862 7.868718736283348 0.7540877035495661 Q 7.912741713482327 0.8566353445542461 7.912741713482327 0.9840430197418788 Q 7.912741713482327 1.0907339997770509 7.875451662207898 1.1891383017512387 Q 7.838161610933469 1.2875426037254267 7.765653177899857 1.3631585410319078 Q 7.6931447448662444 1.438774478338389 7.588007516967507 1.483833290294991 Q 7.48287028906877 1.5288921022515927 7.34614010106253 1.5288921022515927 Q 7.23012660820875 1.5288921022515927 7.12757896720407 1.4905662162195406 Q 7.02503132619939 1.4522403301874884 6.948379554135286 1.3807677319114993 Q 6.871727782071182 1.3092951336355103 6.827186887493392 1.2072654100096418 Q 6.782645992915602 1.1052356863837733 6.782645992915602 0.9778280111961406 M 7.36996430048786 1.4532761649451114 Q 7.4435085682790945 1.4532761649451114 7.5051407363576645 1.4242727917316667 Q 7.566772904436235 1.3952694185182217 7.611313799014026 1.340370176364201 Q 7.655854693591816 1.2854709342101804 7.6807147277747685 1.2067474926308304 Q 7.705574761957721 1.1280240510514798 7.705574761957721 1.0285839143196691 Q 7.705574761957721 0.9167137604963819 7.681750562532391 0.8208990454162516 Q 7.6579263631070615 0.7250843303361213 7.610795881635214 0.6551654841965667 Q 7.563665400163366 0.5852466380570122 7.492192801887377 0.545884917267337 Q 7.4207202036113875 0.506523196477662 7.325423405910069 0.506523196477662 Q 7.251879138118834 0.506523196477662 7.190764887419075 0.5350086523122952 Q 7.129650636719316 0.5634941081469286 7.084591824762715 0.6173575155433262 Q 7.039533012806113 0.6712209229397237 7.01467297862316 0.7494264471402625 Q 6.9898129444402075 0.8276319713408012 6.9898129444402075 0.9270721080726121 Q 6.9898129444402075 1.0389422618958994 7.014155061244349 1.1352748943548412 Q 7.03849717804849 1.231607526813783 7.086145576899149 1.3025622077109604 Q 7.133793975749809 1.3735168886081381 7.204748656646986 1.4133965267766246 Q 7.275703337544163 1.4532761649451114 7.36996430048786 1.4532761649451114" fill="#3f170e" fill-rule="nonzero"></path></g><g></g></g><defs><clipPath id="SvgjsClipPath126520"><path d=" M 8.385250146515938 -0.5825277015450332 h 3.245206242671916 v 2.6753024797044445 h -3.245206242671916 Z"></path></clipPath><clipPath id="SvgjsClipPath12651856538dd9-de10-498d-9c15-6a18e89225b7"><path d=" M 8.385250146515938 -0.5825277015450332 L 11.630456389187854 -0.5825277015450332 L 11.630456389187854 2.092774778159411 L 8.385250146515938 2.092774778159411 Z"></path></clipPath></defs></svg>