<svg xmlns="http://www.w3.org/2000/svg" version="1.1" xmlns:xlink="http://www.w3.org/1999/xlink" viewBox="0 0 4.756785659789859 4.414705162469847"><g transform="matrix(0.852424892322328,0,0,0.852424892322328,0.6767418728298784,3.6702411451652006)"><rect width="5.5210765616448345" height="5.5210765616448345" x="-0.7642909018549755" y="-4.476687793942354" fill="#f9f7e9"></rect><g transform="matrix(1,0,0,1,0,0)" clip-path="url(#SvgjsClipPath3569)"><g clip-path="url(#SvgjsClipPath3564acf30e3f-644f-4dcd-b87a-938bef61859c)"><path d=" M 1.6222136595398577 -3.102882657731365 C 2.0249653237174994 -3.102882657731365 2.3856907272853003 -2.8955531053894834 2.5986237810418276 -2.5880609652608144 L 2.0992117174615514 -2.0886489016805387 L 2.714896435395721 -2.0886489016805387 L 3.1309564154331446 -2.5047088817179635 C 2.96145049764012 -2.9515881195359377 2.5986237810418276 -3.2997056449207864 2.1461410418092073 -3.4538019338235366 C 1.8267414611744162 -3.3942647312929286 1.489130500942028 -3.270287262493898 1.2117571809170784 -3.0293367016641435 C 1.3406377134539242 -3.0769664636886302 1.478623935789568 -3.102882657731365 1.6222136595398577 -3.102882657731365 Z" fill="#3f170e" transform="matrix(1,0,0,1,0,0)" fill-rule="nonzero"></path></g><g clip-path="url(#SvgjsClipPath3564acf30e3f-644f-4dcd-b87a-938bef61859c)"><path d=" M 2.770231011865344 -1.5969416525454003 C 2.6427513546821606 -1.0744151456297124 2.1769602995897572 -0.6884739856960067 1.6222136595398577 -0.6884739856960067 C 1.6124075320642282 -0.6884739856960067 1.6026014045885986 -0.6884739856960067 1.5927952771129692 -0.6891744233728376 C 1.108092404746138 -0.7010818638789593 0.8090055167394369 -1.0162788184527658 0.8090055167394369 -1.0162788184527658 C 0.7620761923917811 -1.0604063920930988 0.7186490564282789 -1.1087365917944156 0.6794245465257607 -1.1598685422030552 C 0.9266790464469913 -0.5771043950799286 1.5493681411494669 -0.3795809702136763 2.1286300998884404 -0.33195120818919 C 2.6889802413529855 -0.517567192549321 3.1155467865428705 -1.0015696272393217 3.2171102496833193 -1.5976420902222312 L 2.771631887219006 -1.5976420902222312 L 2.770231011865344 -1.5976420902222312 Z" fill="#3f170e" transform="matrix(1,0,0,1,0,0)" fill-rule="nonzero"></path></g><g clip-path="url(#SvgjsClipPath3564acf30e3f-644f-4dcd-b87a-938bef61859c)"><path d=" M 3.48537787990947 -2.3211942103883247 L 3.48537787990947 -2.0277108237962693 L 2.7155968730725513 -2.0277108237962693 L 2.0999121551383824 -2.0277108237962693 L 0.4496809885252972 -2.0277108237962693 L 0.008405252121968024 -2.0277108237962693 C 0.002801750707322557 -1.973777122680307 0 -1.9191429838875138 0 -1.8638084074178902 C 0 -1.8547027176190913 0 -1.8455970278202922 0 -1.837191775698324 L 3.986190818843407 -1.8070729555946048 L 3.9924947579348835 -1.8126764570092502 L 3.48537787990947 -2.3211942103883247 Z" fill="#3f170e" transform="matrix(1,0,0,1,0,0)" fill-rule="nonzero"></path></g><g clip-path="url(#SvgjsClipPath3564acf30e3f-644f-4dcd-b87a-938bef61859c)"><path d=" M 1.2131580562707398 -3.0300371393409744 C 1.4905313762956898 -3.2702872624938983 1.8281423365280784 -3.3942647312929286 2.1475419171628687 -3.454502371500367 C 1.9829390631076584 -3.510537385646822 1.806428768546327 -3.5413566434273718 1.6229140972166884 -3.5413566434273718 C 0.784490198050363 -3.5413566434273718 0.09175733566481928 -2.9060596705419437 0.009105689798798973 -2.089349339357369 L 0.4503814262021282 -2.089349339357369 C 0.5106190664095666 -2.5236206989923917 0.8111068297699289 -2.8822447895297003 1.2131580562707398 -3.0300371393409744 Z" fill="#d56a34" transform="matrix(1,0,0,1,0,0)" fill-rule="nonzero"></path></g><g clip-path="url(#SvgjsClipPath3564acf30e3f-644f-4dcd-b87a-938bef61859c)"><path d=" M 0.022414005658581693 -1.5969416525454003 L 0.023814881012242883 -1.5969416525454003 C 0.15479672657958027 -0.8334645847999576 0.8223138325992198 -0.25 1.6222136595398577 -0.25 C 1.7987239541011892 -0.25 1.969630747247876 -0.2787179447500585 2.1286300998884404 -0.3312507705123595 C 1.5493681411494669 -0.37888053253684495 0.9266790464469917 -0.5764039574030981 0.6794245465257607 -1.1591681045262248 C 0.5813632717694653 -1.2866477617094083 0.5092181910559053 -1.4351405491975129 0.4706941188302177 -1.5969416525454003 L 1.6691429838875134 -1.5969416525454003 L 2.2848277018216825 -1.5969416525454003 L 2.7695305741885137 -1.5969416525454003 L 2.771631887219006 -1.5969416525454003 L 3.2171102496833193 -1.5969416525454003 L 3.2185111250369816 -1.5969416525454003 L 3.4846774422326394 -1.5969416525454003 L 3.4846774422326394 -1.358092404746138 L 3.751544197105129 -1.5969416525454003 L 3.757147698519775 -1.5969416525454003 L 3.757147698519775 -1.601844716283215 L 3.9854903811665765 -1.806372517917774 L 0.0007004376768305949 -1.8364913380214933 C 0.002101313030491962 -1.7552405675091343 0.009806127475629568 -1.6753906723504366 0.022414005658581693 -1.5969416525454003 Z" fill="#d56a34" transform="matrix(1,0,0,1,0,0)" fill-rule="nonzero"></path></g></g><g><path d=" M 0.025927734375000004 0.07814941406250003 Q 0.025927734375000004 0.08437500000000003 0.026110839843750004 0.08902587890625004 Q 0.026293945312500004 0.09367675781250004 0.026550292968750003 0.09704589843750003 Q 0.026806640625000003 0.10041503906250003 0.027209472656250004 0.10268554687500003 Q 0.027612304687500006 0.10495605468750004 0.028051757812500005 0.10649414062500004 L 0.028051757812500005 0.10678710937500004 L 0.010473632812500001 0.10678710937500004 L 0.010473632812500001 0.10649414062500004 Q 0.010913085937500002 0.10495605468750004 0.011315917968750002 0.10268554687500003 Q 0.011718750000000002 0.10041503906250003 0.011975097656250001 0.09704589843750003 Q 0.012231445312500002 0.09367675781250004 0.012414550781250002 0.08906250000000003 Q 0.012597656250000002 0.08444824218750004 0.012597656250000002 0.07814941406250003 L 0.012597656250000002 0.03046875000000003 Q 0.012597656250000002 0.02424316406250003 0.012414550781250002 0.019592285156250028 Q 0.012231445312500002 0.014941406250000025 0.011975097656250001 0.011572265625000022 Q 0.011718750000000002 0.00820312500000002 0.011315917968750002 0.005895996093750022 Q 0.010913085937500002 0.003588867187500025 0.010473632812500001 0.002050781250000022 L 0.010473632812500001 0.001757812500000025 L 0.013549804687500002 0.002050781250000022 Q 0.014941406250000002 0.002197265625000014 0.016662597656250003 0.002233886718750022 Q 0.018383789062500003 0.0022705078125000167 0.020214843750000003 0.0022705078125000167 Q 0.023071289062500003 0.0022705078125000167 0.027941894531250004 0.001574707031250025 Q 0.03281250000000001 0.0008789062500000194 0.0403564453125 0.0008789062500000194 Q 0.047387695312500006 0.0008789062500000194 0.05335693359375001 0.002783203125000022 Q 0.05932617187500001 0.004687500000000025 0.06372070312500001 0.008349609375000025 Q 0.06811523437500001 0.012011718750000025 0.07056884765625002 0.017321777343750025 Q 0.0730224609375 0.022631835937500025 0.0730224609375 0.02937011718750003 Q 0.0730224609375 0.03464355468750002 0.07166748046875002 0.03914794921875002 Q 0.07031250000000001 0.04365234375000003 0.06785888671875001 0.04731445312500003 Q 0.06540527343750001 0.05097656250000003 0.06196289062500001 0.053796386718750026 Q 0.05852050781250001 0.05661621093750003 0.05427246093750001 0.05852050781250003 L 0.07998046875 0.09462890625000003 Q 0.08188476562500001 0.09733886718750004 0.08353271484375001 0.09931640625000003 Q 0.08518066406250001 0.10129394531250004 0.08668212890625002 0.10272216796875004 Q 0.08818359375000001 0.10415039062500003 0.08957519531250001 0.10506591796875003 Q 0.09096679687500002 0.10598144531250003 0.09243164062500002 0.10649414062500004 L 0.09243164062500002 0.10678710937500004 L 0.07126464843750001 0.10678710937500004 Q 0.07104492187500001 0.10539550781250004 0.06983642578125002 0.10308837890625004 Q 0.0686279296875 0.10078125000000003 0.06701660156250001 0.09851074218750003 L 0.0410888671875 0.06196289062500003 Q 0.03940429687500001 0.06210937500000003 0.03771972656250001 0.062219238281250026 Q 0.036035156250000006 0.06232910156250003 0.03427734375000001 0.06232910156250003 Q 0.03222656250000001 0.06232910156250003 0.030139160156250004 0.06218261718750003 Q 0.028051757812500005 0.062036132812500026 0.025927734375000004 0.061669921875000026 L 0.025927734375000004 0.07814941406250003 M 0.025927734375000004 0.05595703125000003 Q 0.027905273437500003 0.05639648437500003 0.029956054687500004 0.05657958984375003 Q 0.032006835937500006 0.05676269531250003 0.03391113281250001 0.05676269531250003 Q 0.03940429687500001 0.05676269531250003 0.04394531250000001 0.05511474609375003 Q 0.048486328125000006 0.05346679687500003 0.05167236328125001 0.050097656250000025 Q 0.05485839843750001 0.04672851562500003 0.05661621093750001 0.04171142578125003 Q 0.058374023437500006 0.03669433593750003 0.058374023437500006 0.029956054687500025 Q 0.058374023437500006 0.024462890625000025 0.05712890625000001 0.019995117187500022 Q 0.05588378906250001 0.01552734375000002 0.053430175781250006 0.01241455078125002 Q 0.05097656250000001 0.00930175781250002 0.04724121093750001 0.007580566406250017 Q 0.043505859375000004 0.005859375000000028 0.038525390625 0.005859375000000028 Q 0.033471679687500006 0.005859375000000028 0.030468750000000003 0.006372070312500019 Q 0.027465820312500003 0.006884765625000025 0.025927734375000004 0.007470703125000019 L 0.025927734375000004 0.05595703125000003 M 0.13271484375000003 0.10810546875000003 Q 0.12458496093750002 0.10810546875000003 0.11748046875000001 0.10554199218750003 Q 0.11037597656250002 0.10297851562500003 0.10510253906250001 0.09803466796875003 Q 0.09982910156250002 0.09309082031250003 0.09678955078125001 0.08580322265625004 Q 0.09375000000000001 0.07851562500000003 0.09375000000000001 0.06914062500000004 Q 0.09375000000000001 0.06086425781250003 0.09653320312500002 0.053796386718750026 Q 0.09931640625000002 0.04672851562500003 0.10422363281250002 0.04152832031250003 Q 0.10913085937500001 0.03632812500000003 0.11568603515625002 0.03339843750000003 Q 0.12224121093750001 0.03046875000000003 0.12985839843750002 0.03046875000000003 Q 0.13740234375000002 0.03046875000000003 0.14384765625 0.033068847656250025 Q 0.15029296875000003 0.03566894531250002 0.15501708984375 0.04061279296875002 Q 0.15974121093750004 0.045556640625000026 0.16248779296875004 0.052844238281250025 Q 0.16523437500000004 0.06013183593750003 0.1654541015625 0.06943359375000002 Q 0.15717773437500004 0.06928710937500003 0.14890136718750002 0.06921386718750003 Q 0.14062500000000003 0.06914062500000004 0.13168945312500002 0.06914062500000004 Q 0.12531738281250002 0.06914062500000004 0.11927490234375002 0.06921386718750003 Q 0.11323242187500002 0.06928710937500003 0.10839843750000001 0.06943359375000002 Q 0.10883789062500002 0.07705078125000003 0.11077880859375001 0.08320312500000003 Q 0.11271972656250001 0.08935546875000003 0.11612548828125002 0.09371337890625003 Q 0.11953125000000002 0.09807128906250004 0.12440185546875002 0.10041503906250003 Q 0.12927246093750003 0.10275878906250004 0.1354248046875 0.10275878906250004 Q 0.13967285156250003 0.10275878906250004 0.14344482421875002 0.10177001953125003 Q 0.14721679687500003 0.10078125000000003 0.15029296875000003 0.09902343750000003 Q 0.153369140625 0.09726562500000004 0.15578613281250003 0.09488525390625004 Q 0.15820312500000003 0.09250488281250004 0.15988769531250002 0.08972167968750003 L 0.16076660156250003 0.09016113281250003 L 0.15534667968750004 0.10319824218750004 Q 0.15139160156250003 0.10524902343750003 0.14589843750000003 0.10667724609375004 Q 0.14040527343750003 0.10810546875000003 0.13271484375000003 0.10810546875000003 M 0.12297363281250001 0.06342773437500003 Q 0.1302978515625 0.06342773437500003 0.13765869140625003 0.06339111328125002 Q 0.14501953125000003 0.06335449218750003 0.15102539062500003 0.06313476562500003 Q 0.15036621093750002 0.05676269531250003 0.14853515625000002 0.05170898437500003 Q 0.14670410156250002 0.046655273437500026 0.14384765625 0.043139648437500025 Q 0.14099121093750003 0.03962402343750003 0.13710937500000003 0.03771972656250003 Q 0.1332275390625 0.035815429687500025 0.12854003906250003 0.035815429687500025 Q 0.12429199218750002 0.035815429687500025 0.12073974609375002 0.03768310546875002 Q 0.11718750000000001 0.03955078125000003 0.11455078125000001 0.04306640625000002 Q 0.11191406250000002 0.04658203125000003 0.11030273437500002 0.05167236328125003 Q 0.10869140625000001 0.05676269531250003 0.10839843750000001 0.06328125000000004 Q 0.11169433593750001 0.06342773437500003 0.11535644531250001 0.06342773437500003 Q 0.11901855468750001 0.06342773437500003 0.12297363281250001 0.06342773437500003 M 0.21430664062500004 0.04650878906250003 L 0.21328125000000003 0.046655273437500026 Q 0.21276855468750003 0.044970703125000025 0.21163330078125003 0.04306640625000002 Q 0.21049804687500004 0.04116210937500002 0.20870361328125003 0.03955078125000003 Q 0.20690917968750003 0.03793945312500002 0.20438232421875002 0.03687744140625003 Q 0.20185546875000004 0.035815429687500025 0.19855957031250004 0.035815429687500025 Q 0.19628906250000003 0.035815429687500025 0.19427490234375003 0.03647460937500002 Q 0.19226074218750003 0.03713378906250002 0.19075927734375003 0.03841552734375002 Q 0.18925781250000004 0.03969726562500002 0.18837890625000003 0.04160156250000002 Q 0.18750000000000003 0.043505859375000025 0.18750000000000003 0.046069335937500025 Q 0.18750000000000003 0.04965820312500003 0.18973388671875002 0.05291748046875003 Q 0.19196777343750004 0.056176757812500026 0.19533691406250003 0.05936279296875003 Q 0.19870605468750002 0.06254882812500004 0.20262451171875004 0.06577148437500002 Q 0.20654296875000003 0.06899414062500003 0.20991210937500004 0.07250976562500003 Q 0.21328125000000003 0.07602539062500004 0.21551513671875003 0.08001708984375003 Q 0.21774902343750002 0.08400878906250003 0.21774902343750002 0.08862304687500003 Q 0.21774902343750002 0.09235839843750003 0.21643066406250003 0.09591064453125003 Q 0.21511230468750003 0.09946289062500004 0.21236572265625003 0.10224609375000003 Q 0.20961914062500003 0.10502929687500004 0.20533447265625004 0.10675048828125004 Q 0.20104980468750003 0.10847167968750003 0.19511718750000004 0.10847167968750003 Q 0.19160156250000004 0.10847167968750003 0.18856201171875003 0.10781250000000003 Q 0.18552246093750002 0.10715332031250004 0.18299560546875004 0.10616455078125003 Q 0.18046875000000004 0.10517578125000003 0.17845458984375004 0.10396728515625003 Q 0.17644042968750004 0.10275878906250004 0.17490234375000002 0.10166015625000004 L 0.17563476562500002 0.08774414062500004 L 0.17680664062500004 0.08774414062500004 Q 0.17753906250000004 0.09118652343750003 0.17900390625000004 0.09404296875000004 Q 0.18046875000000004 0.09689941406250004 0.18262939453125002 0.09891357421875004 Q 0.18479003906250002 0.10092773437500004 0.18757324218750004 0.10206298828125003 Q 0.19035644531250004 0.10319824218750004 0.19365234375000004 0.10319824218750004 Q 0.19907226562500002 0.10319824218750004 0.20225830078125004 0.10019531250000004 Q 0.20544433593750003 0.09719238281250003 0.20544433593750003 0.09235839843750003 Q 0.20544433593750003 0.08847656250000004 0.20328369140625002 0.08521728515625003 Q 0.20112304687500004 0.08195800781250004 0.19782714843750004 0.07895507812500004 Q 0.19453125000000004 0.07595214843750003 0.19075927734375003 0.07294921875000003 Q 0.18698730468750002 0.06994628906250003 0.18369140625000002 0.06654052734375003 Q 0.18039550781250002 0.06313476562500003 0.17823486328125002 0.05906982421875003 Q 0.17607421875000004 0.05500488281250003 0.17607421875000004 0.04980468750000003 Q 0.17607421875000004 0.045556640625000026 0.17764892578125002 0.04200439453125003 Q 0.17922363281250003 0.03845214843750003 0.18204345703125002 0.03592529296875002 Q 0.18486328125000004 0.03339843750000003 0.18874511718750003 0.03200683593750002 Q 0.19262695312500003 0.030615234375000022 0.19724121093750002 0.030615234375000022 Q 0.20332031250000004 0.030615234375000022 0.20738525390625004 0.03189697265625002 Q 0.21145019531250003 0.03317871093750002 0.21357421875000004 0.034350585937500025 L 0.21430664062500004 0.04650878906250003 M 0.26711425781250003 0.10810546875000003 Q 0.25898437500000004 0.10810546875000003 0.2518798828125 0.10554199218750003 Q 0.24477539062500003 0.10297851562500003 0.23950195312500003 0.09803466796875003 Q 0.23422851562500002 0.09309082031250003 0.23118896484375004 0.08580322265625004 Q 0.22814941406250003 0.07851562500000003 0.22814941406250003 0.06914062500000004 Q 0.22814941406250003 0.06086425781250003 0.23093261718750002 0.053796386718750026 Q 0.23371582031250002 0.04672851562500003 0.23862304687500002 0.04152832031250003 Q 0.24353027343750003 0.03632812500000003 0.25008544921875003 0.03339843750000003 Q 0.256640625 0.03046875000000003 0.2642578125 0.03046875000000003 Q 0.27180175781250004 0.03046875000000003 0.27824707031250007 0.033068847656250025 Q 0.28469238281250003 0.03566894531250002 0.28941650390625007 0.04061279296875002 Q 0.29414062500000004 0.045556640625000026 0.29688720703125004 0.052844238281250025 Q 0.29963378906250004 0.06013183593750003 0.29985351562500007 0.06943359375000002 Q 0.29157714843750004 0.06928710937500003 0.28330078125 0.06921386718750003 Q 0.27502441406250006 0.06914062500000004 0.2660888671875 0.06914062500000004 Q 0.25971679687500004 0.06914062500000004 0.25367431640625004 0.06921386718750003 Q 0.24763183593750004 0.06928710937500003 0.24279785156250003 0.06943359375000002 Q 0.24323730468750004 0.07705078125000003 0.24517822265625003 0.08320312500000003 Q 0.24711914062500004 0.08935546875000003 0.25052490234375 0.09371337890625003 Q 0.25393066406250003 0.09807128906250004 0.25880126953125004 0.10041503906250003 Q 0.26367187500000006 0.10275878906250004 0.26982421875 0.10275878906250004 Q 0.27407226562500003 0.10275878906250004 0.27784423828125004 0.10177001953125003 Q 0.28161621093750006 0.10078125000000003 0.28469238281250003 0.09902343750000003 Q 0.28776855468750007 0.09726562500000004 0.29018554687500003 0.09488525390625004 Q 0.29260253906250006 0.09250488281250004 0.294287109375 0.08972167968750003 L 0.29516601562500006 0.09016113281250003 L 0.28974609375000004 0.10319824218750004 Q 0.28579101562500003 0.10524902343750003 0.28029785156250003 0.10667724609375004 Q 0.27480468750000003 0.10810546875000003 0.26711425781250003 0.10810546875000003 M 0.257373046875 0.06342773437500003 Q 0.264697265625 0.06342773437500003 0.27205810546875003 0.06339111328125002 Q 0.27941894531250006 0.06335449218750003 0.28542480468750003 0.06313476562500003 Q 0.284765625 0.05676269531250003 0.2829345703125 0.05170898437500003 Q 0.281103515625 0.046655273437500026 0.27824707031250007 0.043139648437500025 Q 0.27539062500000006 0.03962402343750003 0.27150878906250003 0.03771972656250003 Q 0.267626953125 0.035815429687500025 0.26293945312500006 0.035815429687500025 Q 0.25869140625000003 0.035815429687500025 0.25513916015625004 0.03768310546875002 Q 0.25158691406250006 0.03955078125000003 0.24895019531250004 0.04306640625000002 Q 0.24631347656250002 0.04658203125000003 0.24470214843750004 0.05167236328125003 Q 0.24309082031250004 0.05676269531250003 0.24279785156250003 0.06328125000000004 Q 0.24609375000000003 0.06342773437500003 0.24975585937500003 0.06342773437500003 Q 0.25341796875000006 0.06342773437500003 0.257373046875 0.06342773437500003 M 0.31560058593750007 0.06042480468750003 Q 0.31560058593750007 0.05419921875000003 0.31541748046875007 0.049548339843750025 Q 0.31523437500000007 0.04489746093750003 0.3149780273437501 0.04152832031250003 Q 0.31472167968750003 0.03815917968750003 0.31431884765625007 0.03588867187500003 Q 0.31391601562500004 0.033618164062500025 0.31347656250000006 0.03208007812500002 L 0.31347656250000006 0.031787109375000025 L 0.33039550781250004 0.031787109375000025 L 0.33039550781250004 0.03208007812500002 Q 0.3298095703125001 0.03376464843750003 0.32940673828125006 0.036181640625000025 Q 0.32900390625000003 0.03859863281250002 0.32878417968750007 0.042407226562500025 Q 0.33149414062500004 0.04013671875000002 0.33442382812500004 0.03793945312500002 Q 0.33735351562500004 0.03574218750000002 0.3404296875000001 0.03405761718750003 Q 0.34350585937500006 0.03237304687500002 0.34669189453125004 0.03134765625000002 Q 0.3498779296875001 0.030322265625000025 0.35310058593750004 0.030322265625000025 Q 0.3550781250000001 0.030322265625000025 0.3565429687500001 0.030505371093750025 Q 0.3580078125000001 0.030688476562500025 0.35917968750000007 0.03101806640625003 Q 0.36035156250000006 0.03134765625000002 0.3613037109375001 0.03175048828125003 Q 0.36225585937500004 0.032153320312500025 0.3631347656250001 0.032519531250000025 L 0.35954589843750007 0.04650878906250003 L 0.3583007812500001 0.04621582031250003 Q 0.35742187500000006 0.04299316406250003 0.3550048828125001 0.04105224609375002 Q 0.35258789062500007 0.039111328125000025 0.3484130859375001 0.039111328125000025 Q 0.34614257812500004 0.039111328125000025 0.3436523437500001 0.03991699218750003 Q 0.3411621093750001 0.04072265625000003 0.3385986328125001 0.04215087890625002 Q 0.3360351562500001 0.04357910156250003 0.3334716796875001 0.04544677734375003 Q 0.3309082031250001 0.04731445312500003 0.32849121093750006 0.049365234375000025 Q 0.3283447265625001 0.05148925781250003 0.3283447265625001 0.053979492187500026 Q 0.3283447265625001 0.05646972656250003 0.3283447265625001 0.05925292968750003 L 0.3283447265625001 0.07814941406250003 Q 0.3283447265625001 0.08437500000000003 0.32849121093750006 0.08902587890625004 Q 0.32863769531250003 0.09367675781250004 0.32893066406250004 0.09704589843750003 Q 0.32922363281250006 0.10041503906250003 0.32958984375000006 0.10268554687500003 Q 0.32995605468750006 0.10495605468750004 0.33039550781250004 0.10649414062500004 L 0.33039550781250004 0.10678710937500004 L 0.31347656250000006 0.10678710937500004 L 0.31347656250000006 0.10649414062500004 Q 0.31391601562500004 0.10495605468750004 0.31431884765625007 0.10268554687500003 Q 0.31472167968750003 0.10041503906250003 0.3149780273437501 0.09704589843750003 Q 0.31523437500000007 0.09367675781250004 0.31541748046875007 0.08902587890625004 Q 0.31560058593750007 0.08437500000000003 0.31560058593750007 0.07814941406250003 L 0.31560058593750007 0.06042480468750003 M 0.4660400390625001 0.09448242187500003 Q 0.4660400390625001 0.09528808593750003 0.4658569335937501 0.09616699218750004 Q 0.4656738281250001 0.09704589843750003 0.46501464843750007 0.09763183593750004 Q 0.46171875000000007 0.10012207031250003 0.45787353515625007 0.10220947265625004 Q 0.45402832031250007 0.10429687500000004 0.4495605468750001 0.10583496093750004 Q 0.4450927734375001 0.10737304687500003 0.43992919921875007 0.10821533203125004 Q 0.4347656250000001 0.10905761718750004 0.4288330078125001 0.10905761718750004 Q 0.4155029296875001 0.10905761718750004 0.4045166015625001 0.10513916015625004 Q 0.3935302734375001 0.10122070312500003 0.3856567382812501 0.09404296875000004 Q 0.3777832031250001 0.08686523437500003 0.37346191406250007 0.07679443359375003 Q 0.36914062500000006 0.06672363281250003 0.36914062500000006 0.05441894531250003 Q 0.36914062500000006 0.04746093750000003 0.3709350585937501 0.04072265625000003 Q 0.37272949218750007 0.033984375000000025 0.3761718750000001 0.02790527343750003 Q 0.3796142578125001 0.021826171875000022 0.3846679687500001 0.016735839843750017 Q 0.3897216796875001 0.011645507812500025 0.3962036132812501 0.007910156250000022 Q 0.4026855468750001 0.004174804687500019 0.4104858398437501 0.0020874023437500167 Q 0.4182861328125001 1.3877787807814457e-17 0.4273681640625001 1.3877787807814457e-17 Q 0.4308837890625001 1.3877787807814457e-17 0.4345458984375001 0.00032958984375001943 Q 0.4382080078125001 0.000659179687500025 0.4417968750000001 0.0012817382812500139 Q 0.4453857421875001 0.0019042968750000167 0.44871826171875007 0.002783203125000022 Q 0.4520507812500001 0.003662109375000014 0.4550537109375001 0.004760742187500028 L 0.4600341796875001 0.018310546875000028 L 0.4594482421875001 0.018603515625000025 Q 0.45659179687500007 0.016040039062500025 0.4528564453125001 0.013842773437500025 Q 0.4491210937500001 0.011645507812500025 0.44487304687500007 0.01003417968750002 Q 0.4406250000000001 0.008422851562500028 0.4359741210937501 0.007507324218750028 Q 0.43132324218750007 0.006591796875000028 0.42656250000000007 0.006591796875000028 Q 0.4173339843750001 0.006591796875000028 0.4096435546875001 0.00948486328125002 Q 0.4019531250000001 0.012377929687500025 0.3964233398437501 0.017871093750000025 Q 0.3908935546875001 0.023364257812500025 0.38781738281250006 0.03134765625000002 Q 0.3847412109375001 0.03933105468750002 0.3847412109375001 0.04951171875000003 Q 0.3847412109375001 0.06071777343750003 0.3876708984375001 0.07031250000000003 Q 0.3906005859375001 0.07990722656250003 0.3963867187500001 0.08693847656250003 Q 0.4021728515625001 0.09396972656250004 0.4108520507812501 0.09796142578125003 Q 0.4195312500000001 0.10195312500000003 0.4311035156250001 0.10195312500000003 Q 0.4362304687500001 0.10195312500000003 0.4402587890625001 0.10114746093750003 Q 0.4442871093750001 0.10034179687500003 0.44707031250000007 0.09913330078125003 Q 0.4498535156250001 0.09792480468750003 0.45128173828125007 0.09649658203125003 Q 0.4527099609375001 0.09506835937500004 0.4527099609375001 0.09389648437500003 L 0.4527099609375001 0.09104003906250004 Q 0.4527099609375001 0.08591308593750004 0.45256347656250007 0.08217773437500003 Q 0.4524169921875001 0.07844238281250003 0.4521240234375001 0.07569580078125003 Q 0.45183105468750007 0.07294921875000003 0.45146484375000007 0.07097167968750004 Q 0.45109863281250007 0.06899414062500003 0.4505859375000001 0.06730957031250004 L 0.4505859375000001 0.06701660156250003 L 0.4681640625000001 0.06701660156250003 L 0.4681640625000001 0.06730957031250004 Q 0.4677246093750001 0.06884765625000003 0.4673217773437501 0.07093505859375003 Q 0.4669189453125001 0.07302246093750003 0.4666259765625001 0.07587890625000003 Q 0.4663330078125001 0.07873535156250003 0.4661865234375001 0.08258056640625003 Q 0.4660400390625001 0.08642578125000003 0.4660400390625001 0.09147949218750004 L 0.4660400390625001 0.09448242187500003 M 0.47958984375000013 0.06914062500000004 Q 0.47958984375000013 0.06086425781250003 0.4826660156250001 0.053796386718750026 Q 0.48574218750000014 0.04672851562500003 0.49112548828125013 0.04152832031250003 Q 0.4965087890625001 0.03632812500000003 0.5038330078125002 0.03339843750000003 Q 0.5111572265625002 0.03046875000000003 0.5195800781250002 0.03046875000000003 Q 0.5278564453125001 0.03046875000000003 0.5351440429687502 0.03321533203125003 Q 0.5424316406250002 0.03596191406250003 0.5478515625000001 0.04101562500000003 Q 0.5532714843750002 0.046069335937500025 0.5563842773437502 0.05332031250000003 Q 0.5594970703125002 0.060571289062500026 0.5594970703125002 0.06958007812500003 Q 0.5594970703125002 0.07712402343750004 0.5568603515625001 0.08408203125000004 Q 0.5542236328125001 0.09104003906250004 0.5490966796875001 0.09638671875000003 Q 0.5439697265625001 0.10173339843750004 0.5365356445312501 0.10491943359375004 Q 0.5291015625000002 0.10810546875000003 0.5194335937500001 0.10810546875000003 Q 0.5112304687500001 0.10810546875000003 0.5039794921875002 0.10539550781250004 Q 0.49672851562500014 0.10268554687500003 0.49130859375000013 0.09763183593750004 Q 0.4858886718750001 0.09257812500000004 0.48273925781250016 0.08536376953125004 Q 0.47958984375000013 0.07814941406250003 0.47958984375000013 0.06914062500000004 M 0.5211181640625001 0.10275878906250004 Q 0.5263183593750002 0.10275878906250004 0.5306762695312501 0.10070800781250004 Q 0.5350341796875001 0.09865722656250003 0.5381835937500001 0.09477539062500004 Q 0.5413330078125002 0.09089355468750003 0.5430908203125001 0.08532714843750003 Q 0.5448486328125002 0.07976074218750004 0.5448486328125002 0.07272949218750002 Q 0.5448486328125002 0.06481933593750003 0.5431640625000002 0.05804443359375003 Q 0.5414794921875001 0.05126953125000003 0.5381469726562501 0.04632568359375003 Q 0.5348144531250001 0.04138183593750003 0.5297607421875001 0.03859863281250002 Q 0.5247070312500002 0.035815429687500025 0.5179687500000001 0.035815429687500025 Q 0.5127685546875002 0.035815429687500025 0.5084472656250001 0.037829589843750025 Q 0.5041259765625001 0.039843750000000025 0.5009399414062501 0.04365234375000003 Q 0.49775390625000016 0.04746093750000003 0.49599609375000014 0.05299072265625003 Q 0.49423828125000013 0.05852050781250003 0.49423828125000013 0.06555175781250003 Q 0.49423828125000013 0.07346191406250002 0.4959594726562501 0.08027343750000003 Q 0.4976806640625001 0.08708496093750004 0.5010498046875002 0.09210205078125003 Q 0.5044189453125001 0.09711914062500003 0.5094360351562501 0.09993896484375003 Q 0.5144531250000002 0.10275878906250004 0.5211181640625001 0.10275878906250004" fill="#f9f7e9" fill-rule="nonzero"></path></g><g></g></g><defs><clipPath id="SvgjsClipPath3569"><path d=" M 0 -3.5413566434273718 h 3.9924947579348835 v 3.2913566434273718 h -3.9924947579348835 Z"></path></clipPath><clipPath id="SvgjsClipPath3564acf30e3f-644f-4dcd-b87a-938bef61859c"><path d=" M 0 -3.5413566434273718 L 3.9924947579348835 -3.5413566434273718 L 3.9924947579348835 -0.25 L 0 -0.25 Z"></path></clipPath></defs></svg>